HIERARCHY
ROOT Hips
{
	OFFSET 0.000000 0.000000 0.000000
	CHANNELS 6 Xposition Yposition Zposition Xrotation Yrotation Zrotation
	JOINT LeftUpLeg_virtual
	{
		OFFSET 0.000000 0.000000 0.000000
		CHANNELS 3 Xrotation Yrotation Zrotation
		JOINT LeftUpLeg
		{
			OFFSET 13.026900 -6.336304 -1.092800
			CHANNELS 3 Xrotation Yrotation Zrotation
			JOINT LeftLeg
			{
				OFFSET 0.524474 -46.096886 9.782700
				CHANNELS 3 Xrotation Yrotation Zrotation
				JOINT LeftFoot
				{
					OFFSET -0.524474 -53.427422 -12.948200
					CHANNELS 3 Xrotation Yrotation Zrotation
					JOINT LeftToeBase
					{
						OFFSET 0.192200 -14.009700 16.364100
						CHANNELS 3 Xrotation Yrotation Zrotation
						JOINT LeftToe_End
						{
							OFFSET -1.784700 -0.561700 9.474800
							CHANNELS 3 Xrotation Yrotation Zrotation
							End Site
							{
								OFFSET 0 0 0
							}
						}
					}
				}
			}
		}
	}
	JOINT RightUpLeg_virtual
	{
		OFFSET 0.000000 0.000000 0.000000
		CHANNELS 3 Xrotation Yrotation Zrotation
		JOINT RightUpLeg
		{
			OFFSET -12.883000 -6.336304 -1.092800
			CHANNELS 3 Xrotation Yrotation Zrotation
			JOINT RightLeg
			{
				OFFSET -0.524587 -46.096825 9.782800
				CHANNELS 3 Xrotation Yrotation Zrotation
				JOINT RightFoot
				{
					OFFSET 0.524587 -53.427383 -12.948300
					CHANNELS 3 Xrotation Yrotation Zrotation
					JOINT RightToeBase
					{
						OFFSET -0.192200 -14.009700 16.364100
						CHANNELS 3 Xrotation Yrotation Zrotation
						JOINT RightToe_End
						{
							OFFSET 1.784700 -0.561700 9.474800
							CHANNELS 3 Xrotation Yrotation Zrotation
							End Site
							{
								OFFSET 0 0 0
							}
						}
					}
				}
			}
		}
	}
	JOINT Spine_virtual
	{
		OFFSET 0.000000 0.000000 0.000000
		CHANNELS 3 Xrotation Yrotation Zrotation
		JOINT Spine
		{
			OFFSET 0.072000 7.257294 -0.789700
			CHANNELS 3 Xrotation Yrotation Zrotation
			JOINT Spine1
			{
				OFFSET 0.000000 12.508769 -0.658067
				CHANNELS 3 Xrotation Yrotation Zrotation
				JOINT Spine1_split
				{
					OFFSET 0.000000 12.508769 -0.658067
					CHANNELS 3 Xrotation Yrotation Zrotation
					JOINT Spine2
					{
						OFFSET 0.000000 12.508769 -0.658067
						CHANNELS 3 Xrotation Yrotation Zrotation
						JOINT Neck_virtual
						{
							OFFSET 0.000000 0.000000 0.000000
							CHANNELS 3 Xrotation Yrotation Zrotation
							JOINT Neck
							{
								OFFSET 0.000000 14.033295 7.520400
								CHANNELS 3 Xrotation Yrotation Zrotation
								JOINT Head
								{
									OFFSET 0.000000 8.198502 5.703100
									CHANNELS 3 Xrotation Yrotation Zrotation
									JOINT HeadTop_End
									{
										OFFSET 0.000000 17.760803 13.332701
										CHANNELS 3 Xrotation Yrotation Zrotation
										End Site
										{
											OFFSET 0 0 0
										}
									}
								}
							}
						}
						JOINT LeftShoulder_virtual
						{
							OFFSET 0.000000 0.000000 0.000000
							CHANNELS 3 Xrotation Yrotation Zrotation
							JOINT LeftShoulder
							{
								OFFSET 6.292450 5.785301 -0.669000
								CHANNELS 3 Xrotation Yrotation Zrotation
								JOINT LeftShoulder_split
								{
									OFFSET 6.292450 5.785301 -0.669000
									CHANNELS 3 Xrotation Yrotation Zrotation
									JOINT LeftArm
									{
										OFFSET 13.907140 -6.093903 1.965100
										CHANNELS 3 Xrotation Yrotation Zrotation
										JOINT LeftForeArm
										{
											OFFSET 34.140198 0.000000 0.000000
											CHANNELS 3 Xrotation Yrotation Zrotation
											JOINT LeftHand
											{
												OFFSET 40.960209 0.000000 0.000000
												CHANNELS 3 Xrotation Yrotation Zrotation
												End Site
												{
													OFFSET 0 0 0
												}
											}
										}
									}
								}
							}
						}
						JOINT RightShoulder_virtual
						{
							OFFSET 0.000000 0.000000 0.000000
							CHANNELS 3 Xrotation Yrotation Zrotation
							JOINT RightShoulder
							{
								OFFSET -6.292450 5.785301 -0.669000
								CHANNELS 3 Xrotation Yrotation Zrotation
								JOINT RightShoulder_split
								{
									OFFSET -6.292450 5.785301 -0.669000
									CHANNELS 3 Xrotation Yrotation Zrotation
									JOINT RightArm
									{
										OFFSET -13.907140 -6.093903 1.965100
										CHANNELS 3 Xrotation Yrotation Zrotation
										JOINT RightForeArm
										{
											OFFSET -34.140198 0.000000 0.000000
											CHANNELS 3 Xrotation Yrotation Zrotation
											JOINT RightHand
											{
												OFFSET -40.960209 0.000000 0.000000
												CHANNELS 3 Xrotation Yrotation Zrotation
												End Site
												{
													OFFSET 0 0 0
												}
											}
										}
									}
								}
							}
						}
					}
				}
			}
		}
	}
}
MOTION
Frames: 4
Frame Time: 0.03333333
0.908000 85.693649 3.858261 0.000000 0.000000 0.000000 28.242380 -59.817130 28.696432 -62.229041 19.030191 36.700809 50.269660 -21.146897 1.016524 -2.535308 3.993965 -13.529661 -6.098820 -5.170992 0.171536 0.000000 0.000000 0.000000 23.199460 -55.534048 25.366954 -41.427693 6.341881 -36.027933 59.200528 8.333507 -3.469417 -31.318046 -0.681527 27.736690 -1.178919 1.737299 0.804724 0.000000 0.000000 0.000000 11.933257 -44.024647 17.097830 3.870183 10.307565 0.153547 5.771871 8.863353 -4.063325 2.183288 -3.365777 2.002503 0.000000 0.000000 0.000000 -9.882559 8.552011 -2.670217 -21.000708 -9.528772 3.446547 3.204554 4.717611 -6.439262 0.000000 0.000000 0.000000 -8.173867 7.896010 -0.758717 2.070067 -24.354716 3.910180 -2.017275 2.709619 -4.300116 3.963972 20.772989 -59.865993 -34.623195 -59.449557 -33.860984 0.000000 0.000000 0.000000 -9.809797 8.335021 -1.706536 -0.726048 6.538118 2.718520 7.354309 3.975376 9.630865 15.587077 -10.677124 42.569396 -40.209771 54.813784 38.397449 0.000000 0.000000 0.000000 
0.018553 85.506836 3.689438 0.000000 0.000000 0.000000 30.346906 -59.622224 30.122087 -62.477031 19.410993 36.640990 50.255921 -21.897665 1.625676 -2.580790 3.299881 -14.124418 -6.088897 -5.299058 0.660559 0.000000 0.000000 0.000000 25.383592 -54.937110 26.701381 -41.669840 7.242078 -35.237352 60.946229 8.782683 -4.116780 -30.828318 -1.411623 29.529008 -2.199575 1.603313 0.834118 0.000000 0.000000 0.000000 14.526288 -44.501172 19.290725 4.265066 8.823183 0.628346 6.474041 7.436152 -3.734320 4.211843 -5.184916 3.411771 0.000000 0.000000 0.000000 -9.171993 7.428211 -2.304469 -20.684547 -8.255236 4.166265 2.554301 5.050716 -4.620670 0.000000 0.000000 0.000000 -7.794694 6.581027 -0.799558 1.815930 -23.836088 3.208007 -0.822601 -1.547685 -3.059675 8.071070 23.999830 -58.313737 -29.142378 -54.531848 -28.385940 0.000000 0.000000 0.000000 -9.850269 7.128236 -1.459544 -0.491451 6.845250 4.087186 5.420071 2.115823 9.051380 14.062916 -13.583962 43.866019 -48.216399 59.748227 45.864068 0.000000 0.000000 0.000000 
-1.698862 85.242958 3.687866 0.000000 0.000000 0.000000 33.176442 -58.315540 32.353906 -62.918098 19.386331 36.081506 49.390160 -22.147809 1.962238 -2.668394 3.319533 -14.733432 -6.269170 -5.390145 1.150162 0.000000 0.000000 0.000000 28.706134 -53.504676 29.143902 -41.678921 8.164567 -34.430420 62.419535 8.686624 -4.785379 -32.050348 -3.318310 29.918646 -0.948141 1.566843 1.070876 0.000000 0.000000 0.000000 19.213242 -44.186567 22.990586 5.075123 5.994790 1.465036 7.733497 4.109553 -3.411933 4.143625 -4.362356 3.901938 0.000000 0.000000 0.000000 -7.892771 4.407336 -2.170189 -19.565044 -6.960465 5.801424 0.397868 5.101311 -1.301205 0.000000 0.000000 0.000000 -6.599832 3.464036 -1.251110 1.951399 -22.423818 3.072625 0.923130 -6.379719 -0.782302 10.566974 28.199659 -55.822904 -21.191500 -48.178788 -20.710206 0.000000 0.000000 0.000000 -8.953309 3.929161 -1.751775 -0.499449 6.532516 6.262410 5.303796 1.839714 9.242569 9.811773 -15.888886 42.799191 -71.074525 65.789202 68.759706 0.000000 0.000000 0.000000 
-3.842854 84.947479 3.848804 0.000000 0.000000 0.000000 36.211279 -56.083291 34.920957 -63.198962 19.143314 35.042193 47.679747 -21.696301 1.926568 -2.695477 4.101471 -14.898755 -6.626390 -5.413153 1.441323 0.000000 0.000000 0.000000 32.150599 -51.415287 32.002448 -41.783996 8.944103 -33.847078 63.337184 8.244171 -5.427213 -34.247805 -5.922770 29.534390 1.725043 1.664935 1.389579 0.000000 0.000000 0.000000 25.057830 -42.828489 27.219199 6.426481 2.363960 2.381625 9.570011 -0.296689 -3.087191 2.213523 -2.349415 3.564697 0.000000 0.000000 0.000000 -6.035156 0.179272 -2.285233 -17.897037 -5.557761 7.381537 -2.884978 4.307458 2.781326 0.000000 0.000000 0.000000 -4.469979 -0.784930 -1.899726 2.535429 -20.775969 3.548956 2.130805 -9.900095 0.968921 9.399078 32.367587 -51.230708 -13.519774 -40.841656 -13.376118 0.000000 0.000000 0.000000 -6.959646 -0.439995 -2.302073 -0.586017 6.085475 9.239485 6.432764 2.575816 9.587544 4.254717 -16.524280 39.117371 -97.219997 66.409916 95.477930 0.000000 0.000000 0.000000 
